<svg width="1264" height="691" viewBox="0 0 1264 691" fill="none" xmlns="http://www.w3.org/2000/svg">
<g id="department:XXXXXXXX-XXXX-XXXX-XXXX-XXXXXXXXXXXX" clip-path="url(#clip0_152_8)">
<rect width="1264" height="691" fill="#282828"/>
<rect id="department_background" width="1267" height="691" fill="#6CB52D" fill-opacity="0.5"/>
<path id="department_title" d="M1085.55 674H1078.15V652.182H1085.69C1087.86 652.182 1089.72 652.619 1091.28 653.492C1092.84 654.359 1094.04 655.605 1094.88 657.232C1095.72 658.858 1096.13 660.804 1096.13 663.07C1096.13 665.342 1095.71 667.295 1094.87 668.929C1094.03 670.562 1092.82 671.816 1091.23 672.69C1089.66 673.563 1087.76 674 1085.55 674ZM1082.1 670.58H1085.35C1086.87 670.58 1088.14 670.303 1089.16 669.749C1090.17 669.188 1090.94 668.354 1091.45 667.246C1091.96 666.131 1092.21 664.739 1092.21 663.07C1092.21 661.401 1091.96 660.016 1091.45 658.915C1090.94 657.807 1090.18 656.979 1089.18 656.433C1088.18 655.879 1086.95 655.602 1085.47 655.602H1082.1V670.58ZM1106.96 674.32C1105.32 674.32 1103.91 673.979 1102.71 673.297C1101.53 672.608 1100.61 671.635 1099.98 670.378C1099.34 669.114 1099.02 667.626 1099.02 665.914C1099.02 664.231 1099.34 662.754 1099.98 661.482C1100.62 660.204 1101.52 659.21 1102.68 658.499C1103.84 657.782 1105.2 657.423 1106.76 657.423C1107.77 657.423 1108.72 657.587 1109.62 657.913C1110.52 658.233 1111.31 658.73 1112 659.405C1112.7 660.08 1113.25 660.939 1113.64 661.983C1114.04 663.02 1114.24 664.256 1114.24 665.69V666.873H1100.83V664.273H1110.54C1110.54 663.535 1110.38 662.878 1110.06 662.303C1109.75 661.72 1109.31 661.262 1108.75 660.928C1108.2 660.594 1107.55 660.428 1106.81 660.428C1106.03 660.428 1105.33 660.619 1104.74 661.003C1104.14 661.379 1103.68 661.876 1103.34 662.494C1103.02 663.105 1102.85 663.776 1102.84 664.508V666.777C1102.84 667.729 1103.02 668.545 1103.36 669.227C1103.71 669.902 1104.2 670.42 1104.82 670.783C1105.45 671.138 1106.18 671.315 1107.02 671.315C1107.58 671.315 1108.09 671.237 1108.54 671.081C1109 670.918 1109.39 670.68 1109.72 670.367C1110.06 670.055 1110.31 669.668 1110.48 669.206L1114.08 669.611C1113.85 670.562 1113.42 671.393 1112.78 672.104C1112.15 672.807 1111.34 673.354 1110.35 673.744C1109.36 674.128 1108.24 674.32 1106.96 674.32ZM1117.5 680.136V657.636H1121.3V660.342H1121.52C1121.72 659.945 1122 659.522 1122.36 659.075C1122.72 658.62 1123.21 658.233 1123.83 657.913C1124.45 657.587 1125.24 657.423 1126.2 657.423C1127.46 657.423 1128.6 657.746 1129.62 658.393C1130.64 659.032 1131.45 659.98 1132.04 661.237C1132.65 662.487 1132.95 664.021 1132.95 665.839C1132.95 667.636 1132.66 669.163 1132.07 670.42C1131.48 671.678 1130.67 672.636 1129.66 673.297C1128.64 673.957 1127.49 674.288 1126.21 674.288C1125.27 674.288 1124.49 674.131 1123.87 673.819C1123.26 673.506 1122.76 673.13 1122.38 672.69C1122.01 672.242 1121.73 671.82 1121.52 671.422H1121.36V680.136H1117.5ZM1121.28 665.818C1121.28 666.876 1121.43 667.803 1121.73 668.599C1122.04 669.394 1122.47 670.016 1123.04 670.463C1123.62 670.903 1124.31 671.124 1125.13 671.124C1125.98 671.124 1126.7 670.896 1127.27 670.442C1127.85 669.98 1128.28 669.352 1128.57 668.556C1128.87 667.754 1129.02 666.841 1129.02 665.818C1129.02 664.803 1128.87 663.901 1128.58 663.112C1128.29 662.324 1127.86 661.706 1127.28 661.259C1126.71 660.811 1125.99 660.587 1125.13 660.587C1124.31 660.587 1123.61 660.804 1123.03 661.237C1122.46 661.67 1122.02 662.278 1121.72 663.059C1121.43 663.84 1121.28 664.76 1121.28 665.818ZM1140.96 674.33C1139.92 674.33 1138.99 674.146 1138.16 673.776C1137.34 673.4 1136.68 672.846 1136.2 672.114C1135.72 671.383 1135.49 670.481 1135.49 669.408C1135.49 668.485 1135.66 667.722 1136 667.118C1136.34 666.514 1136.8 666.031 1137.39 665.669C1137.98 665.307 1138.65 665.033 1139.39 664.849C1140.13 664.657 1140.9 664.518 1141.7 664.433C1142.66 664.334 1143.43 664.245 1144.03 664.167C1144.63 664.082 1145.06 663.954 1145.33 663.783C1145.61 663.606 1145.75 663.332 1145.75 662.963V662.899C1145.75 662.097 1145.51 661.475 1145.03 661.035C1144.56 660.594 1143.87 660.374 1142.98 660.374C1142.03 660.374 1141.28 660.58 1140.73 660.992C1140.18 661.404 1139.81 661.891 1139.62 662.452L1136.02 661.94C1136.3 660.946 1136.77 660.115 1137.42 659.447C1138.08 658.773 1138.88 658.268 1139.82 657.935C1140.77 657.594 1141.81 657.423 1142.95 657.423C1143.74 657.423 1144.53 657.516 1145.31 657.7C1146.09 657.885 1146.8 658.19 1147.45 658.616C1148.1 659.036 1148.61 659.607 1149.01 660.332C1149.4 661.056 1149.6 661.962 1149.6 663.048V674H1145.89V671.752H1145.77C1145.53 672.207 1145.2 672.633 1144.78 673.031C1144.36 673.421 1143.83 673.737 1143.19 673.979C1142.56 674.213 1141.81 674.33 1140.96 674.33ZM1141.96 671.496C1142.74 671.496 1143.41 671.344 1143.98 671.038C1144.54 670.726 1144.98 670.314 1145.29 669.803C1145.6 669.291 1145.76 668.734 1145.76 668.13V666.202C1145.64 666.301 1145.43 666.393 1145.14 666.479C1144.85 666.564 1144.53 666.638 1144.18 666.702C1143.82 666.766 1143.47 666.823 1143.12 666.873C1142.78 666.923 1142.47 666.965 1142.22 667.001C1141.64 667.079 1141.13 667.207 1140.67 667.384C1140.22 667.562 1139.86 667.81 1139.6 668.13C1139.34 668.442 1139.2 668.847 1139.2 669.344C1139.2 670.055 1139.46 670.591 1139.98 670.953C1140.5 671.315 1141.16 671.496 1141.96 671.496ZM1153.48 674V657.636H1157.22V660.364H1157.39C1157.69 659.419 1158.2 658.691 1158.92 658.18C1159.66 657.661 1160.49 657.402 1161.43 657.402C1161.64 657.402 1161.88 657.413 1162.14 657.434C1162.41 657.448 1162.63 657.473 1162.81 657.509V661.056C1162.65 660.999 1162.39 660.95 1162.03 660.907C1161.69 660.857 1161.35 660.832 1161.02 660.832C1160.32 660.832 1159.69 660.985 1159.13 661.29C1158.57 661.589 1158.14 662.004 1157.82 662.537C1157.5 663.07 1157.34 663.684 1157.34 664.38V674H1153.48ZM1174.42 657.636V660.619H1165.02V657.636H1174.42ZM1167.34 653.716H1171.2V669.078C1171.2 669.597 1171.27 669.994 1171.43 670.271C1171.59 670.541 1171.81 670.726 1172.07 670.825C1172.33 670.925 1172.62 670.974 1172.94 670.974C1173.18 670.974 1173.41 670.957 1173.6 670.921C1173.81 670.886 1173.97 670.854 1174.07 670.825L1174.72 673.84C1174.52 673.911 1174.22 673.989 1173.84 674.075C1173.46 674.16 1173 674.21 1172.45 674.224C1171.49 674.252 1170.62 674.107 1169.84 673.787C1169.07 673.46 1168.45 672.956 1168 672.274C1167.55 671.592 1167.33 670.74 1167.34 669.717V653.716ZM1177.65 674V657.636H1181.34V660.417H1181.53C1181.87 659.479 1182.43 658.748 1183.22 658.222C1184.01 657.69 1184.95 657.423 1186.04 657.423C1187.15 657.423 1188.09 657.693 1188.85 658.233C1189.61 658.766 1190.15 659.494 1190.47 660.417H1190.64C1191 659.508 1191.61 658.783 1192.47 658.244C1193.33 657.697 1194.36 657.423 1195.55 657.423C1197.05 657.423 1198.28 657.899 1199.23 658.851C1200.19 659.803 1200.66 661.191 1200.66 663.016V674H1196.79V663.613C1196.79 662.597 1196.52 661.855 1195.98 661.386C1195.44 660.911 1194.78 660.673 1194 660.673C1193.07 660.673 1192.34 660.964 1191.82 661.546C1191.3 662.121 1191.04 662.871 1191.04 663.794V674H1187.26V663.453C1187.26 662.608 1187 661.933 1186.49 661.429C1185.99 660.925 1185.33 660.673 1184.51 660.673C1183.96 660.673 1183.45 660.815 1183 661.099C1182.54 661.376 1182.18 661.77 1181.91 662.281C1181.64 662.786 1181.51 663.375 1181.51 664.05V674H1177.65ZM1211.82 674.32C1210.18 674.32 1208.76 673.979 1207.57 673.297C1206.38 672.608 1205.47 671.635 1204.83 670.378C1204.19 669.114 1203.87 667.626 1203.87 665.914C1203.87 664.231 1204.19 662.754 1204.83 661.482C1205.48 660.204 1206.38 659.21 1207.53 658.499C1208.69 657.782 1210.05 657.423 1211.62 657.423C1212.62 657.423 1213.58 657.587 1214.47 657.913C1215.37 658.233 1216.17 658.73 1216.86 659.405C1217.55 660.08 1218.1 660.939 1218.5 661.983C1218.9 663.02 1219.09 664.256 1219.09 665.69V666.873H1205.68V664.273H1215.4C1215.39 663.535 1215.23 662.878 1214.92 662.303C1214.61 661.72 1214.17 661.262 1213.61 660.928C1213.05 660.594 1212.41 660.428 1211.67 660.428C1210.88 660.428 1210.19 660.619 1209.59 661.003C1208.99 661.379 1208.53 661.876 1208.2 662.494C1207.87 663.105 1207.7 663.776 1207.69 664.508V666.777C1207.69 667.729 1207.87 668.545 1208.22 669.227C1208.56 669.902 1209.05 670.42 1209.68 670.783C1210.3 671.138 1211.03 671.315 1211.87 671.315C1212.43 671.315 1212.94 671.237 1213.39 671.081C1213.85 670.918 1214.24 670.68 1214.58 670.367C1214.91 670.055 1215.16 669.668 1215.33 669.206L1218.93 669.611C1218.71 670.562 1218.27 671.393 1217.63 672.104C1217 672.807 1216.19 673.354 1215.21 673.744C1214.22 674.128 1213.09 674.32 1211.82 674.32ZM1226.21 664.412V674H1222.36V657.636H1226.04V660.417H1226.23C1226.61 659.501 1227.21 658.773 1228.03 658.233C1228.87 657.693 1229.89 657.423 1231.11 657.423C1232.24 657.423 1233.23 657.665 1234.06 658.148C1234.91 658.631 1235.56 659.33 1236.02 660.246C1236.49 661.163 1236.72 662.274 1236.72 663.581V674H1232.86V664.178C1232.86 663.084 1232.58 662.228 1232.01 661.61C1231.45 660.992 1230.67 660.683 1229.68 660.683C1229 660.683 1228.4 660.832 1227.88 661.131C1227.36 661.422 1226.95 661.844 1226.65 662.398C1226.36 662.952 1226.21 663.624 1226.21 664.412ZM1248.81 657.636V660.619H1239.4V657.636H1248.81ZM1241.72 653.716H1245.58V669.078C1245.58 669.597 1245.66 669.994 1245.82 670.271C1245.98 670.541 1246.19 670.726 1246.45 670.825C1246.72 670.925 1247.01 670.974 1247.33 670.974C1247.57 670.974 1247.79 670.957 1247.99 670.921C1248.19 670.886 1248.35 670.854 1248.46 670.825L1249.11 673.84C1248.9 673.911 1248.61 673.989 1248.22 674.075C1247.85 674.16 1247.38 674.21 1246.84 674.224C1245.87 674.252 1245 674.107 1244.23 673.787C1243.45 673.46 1242.84 672.956 1242.38 672.274C1241.94 671.592 1241.72 670.74 1241.72 669.717V653.716Z" fill="white"/>
<g id="room:XXXXXXXX-XXXX-XXXX-XXXX-XXXXXXXXXXXX">
<rect id="room_background" x="13" y="14" width="612" height="622" fill="#FF6C37" fill-opacity="0.5"/>
<path id="room_title" d="M532.152 618V596.182H540.334C542.01 596.182 543.416 596.473 544.553 597.055C545.696 597.638 546.559 598.455 547.141 599.506C547.731 600.55 548.026 601.768 548.026 603.16C548.026 604.559 547.727 605.773 547.131 606.803C546.541 607.826 545.671 608.618 544.521 609.179C543.37 609.733 541.957 610.01 540.281 610.01H534.453V606.729H539.748C540.728 606.729 541.531 606.594 542.156 606.324C542.781 606.047 543.242 605.646 543.54 605.12C543.846 604.587 543.999 603.934 543.999 603.16C543.999 602.386 543.846 601.725 543.54 601.178C543.235 600.624 542.77 600.205 542.145 599.921C541.52 599.63 540.714 599.484 539.727 599.484H536.104V618H532.152ZM543.423 608.114L548.825 618H544.414L539.109 608.114H543.423ZM558.397 618.32C556.799 618.32 555.414 617.968 554.242 617.265C553.07 616.562 552.161 615.578 551.515 614.314C550.875 613.05 550.556 611.572 550.556 609.882C550.556 608.192 550.875 606.711 551.515 605.44C552.161 604.168 553.07 603.181 554.242 602.478C555.414 601.775 556.799 601.423 558.397 601.423C559.995 601.423 561.38 601.775 562.551 602.478C563.723 603.181 564.629 604.168 565.268 605.44C565.914 606.711 566.238 608.192 566.238 609.882C566.238 611.572 565.914 613.05 565.268 614.314C564.629 615.578 563.723 616.562 562.551 617.265C561.38 617.968 559.995 618.32 558.397 618.32ZM558.418 615.23C559.284 615.23 560.009 614.992 560.591 614.516C561.174 614.033 561.607 613.387 561.891 612.577C562.182 611.768 562.328 610.866 562.328 609.871C562.328 608.87 562.182 607.964 561.891 607.155C561.607 606.338 561.174 605.688 560.591 605.205C560.009 604.722 559.284 604.481 558.418 604.481C557.53 604.481 556.792 604.722 556.202 605.205C555.62 605.688 555.183 606.338 554.892 607.155C554.608 607.964 554.466 608.87 554.466 609.871C554.466 610.866 554.608 611.768 554.892 612.577C555.183 613.387 555.62 614.033 556.202 614.516C556.792 614.992 557.53 615.23 558.418 615.23ZM576.649 618.32C575.051 618.32 573.666 617.968 572.494 617.265C571.322 616.562 570.413 615.578 569.767 614.314C569.127 613.05 568.808 611.572 568.808 609.882C568.808 608.192 569.127 606.711 569.767 605.44C570.413 604.168 571.322 603.181 572.494 602.478C573.666 601.775 575.051 601.423 576.649 601.423C578.247 601.423 579.632 601.775 580.803 602.478C581.975 603.181 582.881 604.168 583.52 605.44C584.166 606.711 584.49 608.192 584.49 609.882C584.49 611.572 584.166 613.05 583.52 614.314C582.881 615.578 581.975 616.562 580.803 617.265C579.632 617.968 578.247 618.32 576.649 618.32ZM576.67 615.23C577.536 615.23 578.261 614.992 578.843 614.516C579.426 614.033 579.859 613.387 580.143 612.577C580.434 611.768 580.58 610.866 580.58 609.871C580.58 608.87 580.434 607.964 580.143 607.155C579.859 606.338 579.426 605.688 578.843 605.205C578.261 604.722 577.536 604.481 576.67 604.481C575.782 604.481 575.044 604.722 574.454 605.205C573.872 605.688 573.435 606.338 573.144 607.155C572.86 607.964 572.718 608.87 572.718 609.871C572.718 610.866 572.86 611.768 573.144 612.577C573.435 613.387 573.872 614.033 574.454 614.516C575.044 614.992 575.782 615.23 576.67 615.23ZM587.763 618V601.636H591.449V604.417H591.641C591.982 603.479 592.546 602.748 593.335 602.222C594.123 601.69 595.064 601.423 596.158 601.423C597.266 601.423 598.2 601.693 598.96 602.233C599.727 602.766 600.266 603.494 600.579 604.417H600.749C601.112 603.508 601.722 602.783 602.582 602.244C603.448 601.697 604.474 601.423 605.661 601.423C607.166 601.423 608.395 601.899 609.347 602.851C610.298 603.803 610.774 605.191 610.774 607.016V618H606.907V607.613C606.907 606.597 606.637 605.855 606.097 605.386C605.558 604.911 604.897 604.673 604.116 604.673C603.185 604.673 602.457 604.964 601.932 605.546C601.413 606.121 601.154 606.871 601.154 607.794V618H597.372V607.453C597.372 606.608 597.116 605.933 596.605 605.429C596.101 604.925 595.44 604.673 594.624 604.673C594.07 604.673 593.565 604.815 593.111 605.099C592.656 605.376 592.294 605.77 592.024 606.281C591.754 606.786 591.619 607.375 591.619 608.05V618H587.763Z" fill="white"/>
<g id="desk:XXXXXXXX-XXXX-XXXX-XXXX-XXXXXXXXXXXX">
<path id="desk_model" d="M122 27H23V288H122V218.635C93.9997 212.661 73 187.783 73 158C73 128.217 93.9997 103.339 122 97.3651V27Z" fill="#960000" fill-opacity="0.5"/>
<path id="desk_title" d="M45.5455 273H38.152V251.182H45.6946C47.8608 251.182 49.7216 251.619 51.277 252.492C52.8395 253.359 54.0398 254.605 54.8778 256.232C55.7159 257.858 56.1349 259.804 56.1349 262.07C56.1349 264.342 55.7124 266.295 54.8672 267.929C54.0291 269.562 52.8182 270.816 51.2344 271.69C49.6577 272.563 47.7614 273 45.5455 273ZM42.1044 269.58H45.3537C46.8736 269.58 48.1413 269.303 49.157 268.749C50.1726 268.188 50.9361 267.354 51.4474 266.246C51.9588 265.131 52.2145 263.739 52.2145 262.07C52.2145 260.401 51.9588 259.016 51.4474 257.915C50.9361 256.807 50.1797 255.979 49.1783 255.433C48.1839 254.879 46.9482 254.602 45.4709 254.602H42.1044V269.58ZM66.9641 273.32C65.3235 273.32 63.9066 272.979 62.7134 272.297C61.5273 271.608 60.6147 270.635 59.9755 269.378C59.3363 268.114 59.0167 266.626 59.0167 264.914C59.0167 263.231 59.3363 261.754 59.9755 260.482C60.6218 259.204 61.5238 258.21 62.6815 257.499C63.8391 256.782 65.1992 256.423 66.7617 256.423C67.7702 256.423 68.7219 256.587 69.6168 256.913C70.5188 257.233 71.3143 257.73 72.0032 258.405C72.6992 259.08 73.2461 259.939 73.6438 260.983C74.0415 262.02 74.2404 263.256 74.2404 264.69V265.873H60.8278V263.273H70.5437C70.5366 262.535 70.3768 261.878 70.0643 261.303C69.7518 260.72 69.315 260.262 68.7539 259.928C68.1999 259.594 67.5536 259.428 66.815 259.428C66.0266 259.428 65.3342 259.619 64.7376 260.003C64.141 260.379 63.6758 260.876 63.342 261.494C63.0153 262.105 62.8484 262.776 62.8413 263.508V265.777C62.8413 266.729 63.0153 267.545 63.3633 268.227C63.7113 268.902 64.1978 269.42 64.8228 269.783C65.4478 270.138 66.1793 270.315 67.0174 270.315C67.5785 270.315 68.0863 270.237 68.5408 270.081C68.9954 269.918 69.3896 269.68 69.7234 269.367C70.0572 269.055 70.3093 268.668 70.4798 268.206L74.0806 268.611C73.8533 269.562 73.4201 270.393 72.7809 271.104C72.1488 271.807 71.3391 272.354 70.3519 272.744C69.3647 273.128 68.2354 273.32 66.9641 273.32ZM90.4363 260.962L86.9206 261.345C86.8212 260.99 86.6472 260.656 86.3986 260.344C86.1571 260.031 85.8304 259.779 85.4185 259.587C85.0066 259.396 84.5023 259.3 83.9057 259.3C83.1032 259.3 82.4284 259.474 81.8816 259.822C81.3418 260.17 81.0755 260.621 81.0826 261.175C81.0755 261.651 81.2495 262.038 81.6046 262.336C81.9668 262.634 82.5634 262.879 83.3944 263.071L86.1855 263.668C87.7338 264.001 88.8844 264.531 89.6373 265.255C90.3972 265.979 90.7807 266.928 90.7878 268.099C90.7807 269.129 90.4789 270.038 89.8823 270.827C89.2928 271.608 88.4725 272.219 87.4213 272.659C86.3702 273.099 85.1628 273.32 83.7992 273.32C81.7963 273.32 80.1841 272.901 78.9625 272.062C77.7409 271.217 77.013 270.042 76.7786 268.536L80.5392 268.174C80.7097 268.913 81.0719 269.47 81.6259 269.847C82.1799 270.223 82.9007 270.411 83.7885 270.411C84.7047 270.411 85.4398 270.223 85.9938 269.847C86.5549 269.47 86.8354 269.005 86.8354 268.451C86.8354 267.982 86.6543 267.595 86.2921 267.29C85.937 266.984 85.383 266.75 84.6301 266.587L81.839 266.001C80.2694 265.674 79.1081 265.124 78.3553 264.349C77.6025 263.568 77.2296 262.581 77.2367 261.388C77.2296 260.379 77.503 259.506 78.057 258.767C78.6181 258.021 79.3958 257.446 80.3901 257.041C81.3915 256.629 82.5456 256.423 83.8525 256.423C85.7701 256.423 87.2793 256.832 88.3801 257.648C89.4881 258.465 90.1735 259.57 90.4363 260.962ZM97.4835 267.865L97.4728 263.21H98.0907L103.971 256.636H108.478L101.244 264.69H100.445L97.4835 267.865ZM93.9679 273V251.182H97.8244V273H93.9679ZM104.238 273L98.911 265.553L101.51 262.837L108.851 273H104.238Z" fill="white"/>
</g>
<g id="desk:XXXXXXXX-XXXX-XXXX-XXXX-XXXXXXXXXXXX_2">
<path id="desk_model_2" d="M122 357H23V618H122V548.635C93.9997 542.661 73 517.783 73 488C73 458.217 93.9997 433.339 122 427.365V357Z" fill="#960000" fill-opacity="0.5"/>
<path id="desk_title_2" d="M45.5455 600H38.152V578.182H45.6946C47.8608 578.182 49.7216 578.619 51.277 579.492C52.8395 580.359 54.0398 581.605 54.8778 583.232C55.7159 584.858 56.1349 586.804 56.1349 589.07C56.1349 591.342 55.7124 593.295 54.8672 594.929C54.0291 596.562 52.8182 597.816 51.2344 598.69C49.6577 599.563 47.7614 600 45.5455 600ZM42.1044 596.58H45.3537C46.8736 596.58 48.1413 596.303 49.157 595.749C50.1726 595.188 50.9361 594.354 51.4474 593.246C51.9588 592.131 52.2145 590.739 52.2145 589.07C52.2145 587.401 51.9588 586.016 51.4474 584.915C50.9361 583.807 50.1797 582.979 49.1783 582.433C48.1839 581.879 46.9482 581.602 45.4709 581.602H42.1044V596.58ZM66.9641 600.32C65.3235 600.32 63.9066 599.979 62.7134 599.297C61.5273 598.608 60.6147 597.635 59.9755 596.378C59.3363 595.114 59.0167 593.626 59.0167 591.914C59.0167 590.231 59.3363 588.754 59.9755 587.482C60.6218 586.204 61.5238 585.21 62.6815 584.499C63.8391 583.782 65.1992 583.423 66.7617 583.423C67.7702 583.423 68.7219 583.587 69.6168 583.913C70.5188 584.233 71.3143 584.73 72.0032 585.405C72.6992 586.08 73.2461 586.939 73.6438 587.983C74.0415 589.02 74.2404 590.256 74.2404 591.69V592.873H60.8278V590.273H70.5437C70.5366 589.535 70.3768 588.878 70.0643 588.303C69.7518 587.72 69.315 587.262 68.7539 586.928C68.1999 586.594 67.5536 586.428 66.815 586.428C66.0266 586.428 65.3342 586.619 64.7376 587.003C64.141 587.379 63.6758 587.876 63.342 588.494C63.0153 589.105 62.8484 589.776 62.8413 590.508V592.777C62.8413 593.729 63.0153 594.545 63.3633 595.227C63.7113 595.902 64.1978 596.42 64.8228 596.783C65.4478 597.138 66.1793 597.315 67.0174 597.315C67.5785 597.315 68.0863 597.237 68.5408 597.081C68.9954 596.918 69.3896 596.68 69.7234 596.367C70.0572 596.055 70.3093 595.668 70.4798 595.206L74.0806 595.611C73.8533 596.562 73.4201 597.393 72.7809 598.104C72.1488 598.807 71.3391 599.354 70.3519 599.744C69.3647 600.128 68.2354 600.32 66.9641 600.32ZM90.4363 587.962L86.9206 588.345C86.8212 587.99 86.6472 587.656 86.3986 587.344C86.1571 587.031 85.8304 586.779 85.4185 586.587C85.0066 586.396 84.5023 586.3 83.9057 586.3C83.1032 586.3 82.4284 586.474 81.8816 586.822C81.3418 587.17 81.0755 587.621 81.0826 588.175C81.0755 588.651 81.2495 589.038 81.6046 589.336C81.9668 589.634 82.5634 589.879 83.3944 590.071L86.1855 590.668C87.7338 591.001 88.8844 591.531 89.6373 592.255C90.3972 592.979 90.7807 593.928 90.7878 595.099C90.7807 596.129 90.4789 597.038 89.8823 597.827C89.2928 598.608 88.4725 599.219 87.4213 599.659C86.3702 600.099 85.1628 600.32 83.7992 600.32C81.7963 600.32 80.1841 599.901 78.9625 599.062C77.7409 598.217 77.013 597.042 76.7786 595.536L80.5392 595.174C80.7097 595.913 81.0719 596.47 81.6259 596.847C82.1799 597.223 82.9007 597.411 83.7885 597.411C84.7047 597.411 85.4398 597.223 85.9938 596.847C86.5549 596.47 86.8354 596.005 86.8354 595.451C86.8354 594.982 86.6543 594.595 86.2921 594.29C85.937 593.984 85.383 593.75 84.6301 593.587L81.839 593.001C80.2694 592.674 79.1081 592.124 78.3553 591.349C77.6025 590.568 77.2296 589.581 77.2367 588.388C77.2296 587.379 77.503 586.506 78.057 585.767C78.6181 585.021 79.3958 584.446 80.3901 584.041C81.3915 583.629 82.5456 583.423 83.8525 583.423C85.7701 583.423 87.2793 583.832 88.3801 584.648C89.4881 585.465 90.1735 586.57 90.4363 587.962ZM97.4835 594.865L97.4728 590.21H98.0907L103.971 583.636H108.478L101.244 591.69H100.445L97.4835 594.865ZM93.9679 600V578.182H97.8244V600H93.9679ZM104.238 600L98.911 592.553L101.51 589.837L108.851 600H104.238Z" fill="white"/>
</g>
</g>
<g id="room:XXXXXXXX-XXXX-XXXX-XXXX-XXXXXXXXXXXX_2">
<rect id="room_background_2" x="639" y="14" width="612" height="622" fill="#FF6C37" fill-opacity="0.5"/>
<path id="room_title_2" d="M1158.15 618V596.182H1166.33C1168.01 596.182 1169.42 596.473 1170.55 597.055C1171.7 597.638 1172.56 598.455 1173.14 599.506C1173.73 600.55 1174.03 601.768 1174.03 603.16C1174.03 604.559 1173.73 605.773 1173.13 606.803C1172.54 607.826 1171.67 608.618 1170.52 609.179C1169.37 609.733 1167.96 610.01 1166.28 610.01H1160.45V606.729H1165.75C1166.73 606.729 1167.53 606.594 1168.16 606.324C1168.78 606.047 1169.24 605.646 1169.54 605.12C1169.85 604.587 1170 603.934 1170 603.16C1170 602.386 1169.85 601.725 1169.54 601.178C1169.24 600.624 1168.77 600.205 1168.14 599.921C1167.52 599.63 1166.71 599.484 1165.73 599.484H1162.1V618H1158.15ZM1169.42 608.114L1174.82 618H1170.41L1165.11 608.114H1169.42ZM1184.4 618.32C1182.8 618.32 1181.41 617.968 1180.24 617.265C1179.07 616.562 1178.16 615.578 1177.51 614.314C1176.88 613.05 1176.56 611.572 1176.56 609.882C1176.56 608.192 1176.88 606.711 1177.51 605.44C1178.16 604.168 1179.07 603.181 1180.24 602.478C1181.41 601.775 1182.8 601.423 1184.4 601.423C1185.99 601.423 1187.38 601.775 1188.55 602.478C1189.72 603.181 1190.63 604.168 1191.27 605.44C1191.91 606.711 1192.24 608.192 1192.24 609.882C1192.24 611.572 1191.91 613.05 1191.27 614.314C1190.63 615.578 1189.72 616.562 1188.55 617.265C1187.38 617.968 1185.99 618.32 1184.4 618.32ZM1184.42 615.23C1185.28 615.23 1186.01 614.992 1186.59 614.516C1187.17 614.033 1187.61 613.387 1187.89 612.577C1188.18 611.768 1188.33 610.866 1188.33 609.871C1188.33 608.87 1188.18 607.964 1187.89 607.155C1187.61 606.338 1187.17 605.688 1186.59 605.205C1186.01 604.722 1185.28 604.481 1184.42 604.481C1183.53 604.481 1182.79 604.722 1182.2 605.205C1181.62 605.688 1181.18 606.338 1180.89 607.155C1180.61 607.964 1180.47 608.87 1180.47 609.871C1180.47 610.866 1180.61 611.768 1180.89 612.577C1181.18 613.387 1181.62 614.033 1182.2 614.516C1182.79 614.992 1183.53 615.23 1184.42 615.23ZM1202.65 618.32C1201.05 618.32 1199.67 617.968 1198.49 617.265C1197.32 616.562 1196.41 615.578 1195.77 614.314C1195.13 613.05 1194.81 611.572 1194.81 609.882C1194.81 608.192 1195.13 606.711 1195.77 605.44C1196.41 604.168 1197.32 603.181 1198.49 602.478C1199.67 601.775 1201.05 601.423 1202.65 601.423C1204.25 601.423 1205.63 601.775 1206.8 602.478C1207.98 603.181 1208.88 604.168 1209.52 605.44C1210.17 606.711 1210.49 608.192 1210.49 609.882C1210.49 611.572 1210.17 613.05 1209.52 614.314C1208.88 615.578 1207.98 616.562 1206.8 617.265C1205.63 617.968 1204.25 618.32 1202.65 618.32ZM1202.67 615.23C1203.54 615.23 1204.26 614.992 1204.84 614.516C1205.43 614.033 1205.86 613.387 1206.14 612.577C1206.43 611.768 1206.58 610.866 1206.58 609.871C1206.58 608.87 1206.43 607.964 1206.14 607.155C1205.86 606.338 1205.43 605.688 1204.84 605.205C1204.26 604.722 1203.54 604.481 1202.67 604.481C1201.78 604.481 1201.04 604.722 1200.45 605.205C1199.87 605.688 1199.43 606.338 1199.14 607.155C1198.86 607.964 1198.72 608.87 1198.72 609.871C1198.72 610.866 1198.86 611.768 1199.14 612.577C1199.43 613.387 1199.87 614.033 1200.45 614.516C1201.04 614.992 1201.78 615.23 1202.67 615.23ZM1213.76 618V601.636H1217.45V604.417H1217.64C1217.98 603.479 1218.55 602.748 1219.33 602.222C1220.12 601.69 1221.06 601.423 1222.16 601.423C1223.27 601.423 1224.2 601.693 1224.96 602.233C1225.73 602.766 1226.27 603.494 1226.58 604.417H1226.75C1227.11 603.508 1227.72 602.783 1228.58 602.244C1229.45 601.697 1230.47 601.423 1231.66 601.423C1233.17 601.423 1234.39 601.899 1235.35 602.851C1236.3 603.803 1236.77 605.191 1236.77 607.016V618H1232.91V607.613C1232.91 606.597 1232.64 605.855 1232.1 605.386C1231.56 604.911 1230.9 604.673 1230.12 604.673C1229.19 604.673 1228.46 604.964 1227.93 605.546C1227.41 606.121 1227.15 606.871 1227.15 607.794V618H1223.37V607.453C1223.37 606.608 1223.12 605.933 1222.61 605.429C1222.1 604.925 1221.44 604.673 1220.62 604.673C1220.07 604.673 1219.57 604.815 1219.11 605.099C1218.66 605.376 1218.29 605.77 1218.02 606.281C1217.75 606.786 1217.62 607.375 1217.62 608.05V618H1213.76Z" fill="white"/>
<g id="desk:XXXXXXXX-XXXX-XXXX-XXXX-XXXXXXXXXXXX_3">
<path id="desk_model_3" d="M748 27H649V288H748V218.635C720 212.661 699 187.783 699 158C699 128.217 720 103.339 748 97.3651V27Z" fill="#960000" fill-opacity="0.5"/>
<path id="desk_title_3" d="M671.545 273H664.152V251.182H671.695C673.861 251.182 675.722 251.619 677.277 252.492C678.839 253.359 680.04 254.605 680.878 256.232C681.716 257.858 682.135 259.804 682.135 262.07C682.135 264.342 681.712 266.295 680.867 267.929C680.029 269.562 678.818 270.816 677.234 271.69C675.658 272.563 673.761 273 671.545 273ZM668.104 269.58H671.354C672.874 269.58 674.141 269.303 675.157 268.749C676.173 268.188 676.936 267.354 677.447 266.246C677.959 265.131 678.214 263.739 678.214 262.07C678.214 260.401 677.959 259.016 677.447 257.915C676.936 256.807 676.18 255.979 675.178 255.433C674.184 254.879 672.948 254.602 671.471 254.602H668.104V269.58ZM692.964 273.32C691.324 273.32 689.907 272.979 688.713 272.297C687.527 271.608 686.615 270.635 685.975 269.378C685.336 268.114 685.017 266.626 685.017 264.914C685.017 263.231 685.336 261.754 685.975 260.482C686.622 259.204 687.524 258.21 688.681 257.499C689.839 256.782 691.199 256.423 692.762 256.423C693.77 256.423 694.722 256.587 695.617 256.913C696.519 257.233 697.314 257.73 698.003 258.405C698.699 259.08 699.246 259.939 699.644 260.983C700.042 262.02 700.24 263.256 700.24 264.69V265.873H686.828V263.273H696.544C696.537 262.535 696.377 261.878 696.064 261.303C695.752 260.72 695.315 260.262 694.754 259.928C694.2 259.594 693.554 259.428 692.815 259.428C692.027 259.428 691.334 259.619 690.738 260.003C690.141 260.379 689.676 260.876 689.342 261.494C689.015 262.105 688.848 262.776 688.841 263.508V265.777C688.841 266.729 689.015 267.545 689.363 268.227C689.711 268.902 690.198 269.42 690.823 269.783C691.448 270.138 692.179 270.315 693.017 270.315C693.578 270.315 694.086 270.237 694.541 270.081C694.995 269.918 695.39 269.68 695.723 269.367C696.057 269.055 696.309 268.668 696.48 268.206L700.081 268.611C699.853 269.562 699.42 270.393 698.781 271.104C698.149 271.807 697.339 272.354 696.352 272.744C695.365 273.128 694.235 273.32 692.964 273.32ZM716.436 260.962L712.921 261.345C712.821 260.99 712.647 260.656 712.399 260.344C712.157 260.031 711.83 259.779 711.419 259.587C711.007 259.396 710.502 259.3 709.906 259.3C709.103 259.3 708.428 259.474 707.882 259.822C707.342 260.17 707.075 260.621 707.083 261.175C707.075 261.651 707.249 262.038 707.605 262.336C707.967 262.634 708.563 262.879 709.394 263.071L712.186 263.668C713.734 264.001 714.884 264.531 715.637 265.255C716.397 265.979 716.781 266.928 716.788 268.099C716.781 269.129 716.479 270.038 715.882 270.827C715.293 271.608 714.472 272.219 713.421 272.659C712.37 273.099 711.163 273.32 709.799 273.32C707.796 273.32 706.184 272.901 704.963 272.062C703.741 271.217 703.013 270.042 702.779 268.536L706.539 268.174C706.71 268.913 707.072 269.47 707.626 269.847C708.18 270.223 708.901 270.411 709.789 270.411C710.705 270.411 711.44 270.223 711.994 269.847C712.555 269.47 712.835 269.005 712.835 268.451C712.835 267.982 712.654 267.595 712.292 267.29C711.937 266.984 711.383 266.75 710.63 266.587L707.839 266.001C706.269 265.674 705.108 265.124 704.355 264.349C703.602 263.568 703.23 262.581 703.237 261.388C703.23 260.379 703.503 259.506 704.057 258.767C704.618 258.021 705.396 257.446 706.39 257.041C707.392 256.629 708.546 256.423 709.852 256.423C711.77 256.423 713.279 256.832 714.38 257.648C715.488 258.465 716.173 259.57 716.436 260.962ZM723.483 267.865L723.473 263.21H724.091L729.971 256.636H734.478L727.244 264.69H726.445L723.483 267.865ZM719.968 273V251.182H723.824V273H719.968ZM730.238 273L724.911 265.553L727.51 262.837L734.851 273H730.238Z" fill="white"/>
</g>
<g id="desk:XXXXXXXX-XXXX-XXXX-XXXX-XXXXXXXXXXXX_4">
<path id="desk_model_4" d="M748 357H649V618H748V548.635C720 542.661 699 517.783 699 488C699 458.217 720 433.339 748 427.365V357Z" fill="#960000" fill-opacity="0.5"/>
<path id="desk_title_4" d="M671.545 600H664.152V578.182H671.695C673.861 578.182 675.722 578.619 677.277 579.492C678.839 580.359 680.04 581.605 680.878 583.232C681.716 584.858 682.135 586.804 682.135 589.07C682.135 591.342 681.712 593.295 680.867 594.929C680.029 596.562 678.818 597.816 677.234 598.69C675.658 599.563 673.761 600 671.545 600ZM668.104 596.58H671.354C672.874 596.58 674.141 596.303 675.157 595.749C676.173 595.188 676.936 594.354 677.447 593.246C677.959 592.131 678.214 590.739 678.214 589.07C678.214 587.401 677.959 586.016 677.447 584.915C676.936 583.807 676.18 582.979 675.178 582.433C674.184 581.879 672.948 581.602 671.471 581.602H668.104V596.58ZM692.964 600.32C691.324 600.32 689.907 599.979 688.713 599.297C687.527 598.608 686.615 597.635 685.975 596.378C685.336 595.114 685.017 593.626 685.017 591.914C685.017 590.231 685.336 588.754 685.975 587.482C686.622 586.204 687.524 585.21 688.681 584.499C689.839 583.782 691.199 583.423 692.762 583.423C693.77 583.423 694.722 583.587 695.617 583.913C696.519 584.233 697.314 584.73 698.003 585.405C698.699 586.08 699.246 586.939 699.644 587.983C700.042 589.02 700.24 590.256 700.24 591.69V592.873H686.828V590.273H696.544C696.537 589.535 696.377 588.878 696.064 588.303C695.752 587.72 695.315 587.262 694.754 586.928C694.2 586.594 693.554 586.428 692.815 586.428C692.027 586.428 691.334 586.619 690.738 587.003C690.141 587.379 689.676 587.876 689.342 588.494C689.015 589.105 688.848 589.776 688.841 590.508V592.777C688.841 593.729 689.015 594.545 689.363 595.227C689.711 595.902 690.198 596.42 690.823 596.783C691.448 597.138 692.179 597.315 693.017 597.315C693.578 597.315 694.086 597.237 694.541 597.081C694.995 596.918 695.39 596.68 695.723 596.367C696.057 596.055 696.309 595.668 696.48 595.206L700.081 595.611C699.853 596.562 699.42 597.393 698.781 598.104C698.149 598.807 697.339 599.354 696.352 599.744C695.365 600.128 694.235 600.32 692.964 600.32ZM716.436 587.962L712.921 588.345C712.821 587.99 712.647 587.656 712.399 587.344C712.157 587.031 711.83 586.779 711.419 586.587C711.007 586.396 710.502 586.3 709.906 586.3C709.103 586.3 708.428 586.474 707.882 586.822C707.342 587.17 707.075 587.621 707.083 588.175C707.075 588.651 707.249 589.038 707.605 589.336C707.967 589.634 708.563 589.879 709.394 590.071L712.186 590.668C713.734 591.001 714.884 591.531 715.637 592.255C716.397 592.979 716.781 593.928 716.788 595.099C716.781 596.129 716.479 597.038 715.882 597.827C715.293 598.608 714.472 599.219 713.421 599.659C712.37 600.099 711.163 600.32 709.799 600.32C707.796 600.32 706.184 599.901 704.963 599.062C703.741 598.217 703.013 597.042 702.779 595.536L706.539 595.174C706.71 595.913 707.072 596.47 707.626 596.847C708.18 597.223 708.901 597.411 709.789 597.411C710.705 597.411 711.44 597.223 711.994 596.847C712.555 596.47 712.835 596.005 712.835 595.451C712.835 594.982 712.654 594.595 712.292 594.29C711.937 593.984 711.383 593.75 710.63 593.587L707.839 593.001C706.269 592.674 705.108 592.124 704.355 591.349C703.602 590.568 703.23 589.581 703.237 588.388C703.23 587.379 703.503 586.506 704.057 585.767C704.618 585.021 705.396 584.446 706.39 584.041C707.392 583.629 708.546 583.423 709.852 583.423C711.77 583.423 713.279 583.832 714.38 584.648C715.488 585.465 716.173 586.57 716.436 587.962ZM723.483 594.865L723.473 590.21H724.091L729.971 583.636H734.478L727.244 591.69H726.445L723.483 594.865ZM719.968 600V578.182H723.824V600H719.968ZM730.238 600L724.911 592.553L727.51 589.837L734.851 600H730.238Z" fill="white"/>
</g>
</g>
</g>
<defs>
<clipPath id="clip0_152_8">
<rect width="1264" height="691" fill="white"/>
</clipPath>
</defs>
</svg>
